<mxfile host="Electron" modified="2024-07-18T02:19:56.795Z" agent="Mozilla/5.0 (Windows NT 10.0; Win64; x64) AppleWebKit/537.36 (KHTML, like Gecko) draw.io/24.2.5 Chrome/120.0.6099.109 Electron/28.1.0 Safari/537.36" etag="Fe1_zYxknqdvklCDpF4E" version="24.2.5" type="device">
  <diagram name="Page-1" id="Tr1DpHCkTFk9cVYBs2OY">
    <mxGraphModel dx="2938" dy="1198" grid="1" gridSize="10" guides="1" tooltips="1" connect="1" arrows="1" fold="1" page="1" pageScale="1" pageWidth="850" pageHeight="1100" math="0" shadow="0">
      <root>
        <mxCell id="0" />
        <mxCell id="1" parent="0" />
        <mxCell id="bXrgt12IdPxXTZLLOTQe-1" value="Spring Boot" style="rounded=0;whiteSpace=wrap;html=1;fillColor=#60a917;strokeColor=#2D7600;fontColor=#ffffff;" vertex="1" parent="1">
          <mxGeometry x="280" y="460" width="370" height="30" as="geometry" />
        </mxCell>
        <mxCell id="bXrgt12IdPxXTZLLOTQe-2" value="Spring MVC" style="rounded=0;whiteSpace=wrap;html=1;fillColor=#dae8fc;strokeColor=#6c8ebf;" vertex="1" parent="1">
          <mxGeometry x="280" y="500" width="110" height="30" as="geometry" />
        </mxCell>
        <mxCell id="bXrgt12IdPxXTZLLOTQe-3" value="Spring REST" style="rounded=0;whiteSpace=wrap;html=1;fillColor=#dae8fc;strokeColor=#6c8ebf;" vertex="1" parent="1">
          <mxGeometry x="410" y="500" width="110" height="30" as="geometry" />
        </mxCell>
        <mxCell id="bXrgt12IdPxXTZLLOTQe-4" value="Spring..." style="rounded=0;whiteSpace=wrap;html=1;fillColor=#dae8fc;strokeColor=#6c8ebf;" vertex="1" parent="1">
          <mxGeometry x="540" y="500" width="110" height="30" as="geometry" />
        </mxCell>
        <mxCell id="bXrgt12IdPxXTZLLOTQe-5" value="Spring Core" style="rounded=0;whiteSpace=wrap;html=1;fillColor=#dae8fc;strokeColor=#6c8ebf;" vertex="1" parent="1">
          <mxGeometry x="280" y="540" width="110" height="30" as="geometry" />
        </mxCell>
        <mxCell id="bXrgt12IdPxXTZLLOTQe-6" value="Spring AOP" style="rounded=0;whiteSpace=wrap;html=1;fillColor=#dae8fc;strokeColor=#6c8ebf;" vertex="1" parent="1">
          <mxGeometry x="410" y="540" width="110" height="30" as="geometry" />
        </mxCell>
        <mxCell id="bXrgt12IdPxXTZLLOTQe-7" value="Spring..." style="rounded=0;whiteSpace=wrap;html=1;fillColor=#dae8fc;strokeColor=#6c8ebf;" vertex="1" parent="1">
          <mxGeometry x="540" y="540" width="110" height="30" as="geometry" />
        </mxCell>
      </root>
    </mxGraphModel>
  </diagram>
</mxfile>
